<?xml version="1.0" encoding="iso-8859-1"?>
<!-- Generator: Adobe Illustrator 19.0.0, SVG Export Plug-In . SVG Version: 6.00 Build 0)  -->
<svg xmlns="http://www.w3.org/2000/svg"
  xmlns:xlink="http://www.w3.org/1999/xlink" version="1.1" id="Layer_1" x="0px" y="0px" viewBox="0 0 511.998 511.998" style="enable-background:new 0 0 511.998 511.998;" xml:space="preserve">
  <path style="fill:#9BDDD1;" d="M494.889,191.989c5.448,20.411,8.363,41.873,8.363,64.01s-2.914,43.601-8.363,64.01l-0.551-0.147  l-113.035-30.291c2.878-10.713,4.408-21.965,4.408-33.572c0-11.607-1.53-22.859-4.408-33.572l113.035-30.291L494.889,191.989z"/>
  <path style="fill:#ABEFE6;" d="M494.889,191.989l-0.551,0.147l-113.035,30.291c-5.951-22.333-17.716-42.278-33.585-58.146  l82.757-82.757l0.355-0.355C461.072,111.401,483.514,149.43,494.889,191.989z"/>
  <path style="fill:#82C1B2;" d="M494.339,319.864l0.551,0.147C483.514,362.57,461.072,400.6,430.83,430.83l-0.355-0.355  l-82.757-82.757c15.868-15.868,27.634-35.813,33.585-58.146L494.339,319.864z"/>
  <path style="fill:#B26300;" d="M430.83,81.17l-0.355,0.355l-82.757,82.757c-15.868-15.868-35.813-27.634-58.146-33.585  l30.291-113.035l0.147-0.551C362.557,28.486,400.588,50.928,430.83,81.17z"/>
  <path style="fill:#F23488;" d="M430.474,430.475l0.355,0.355c-30.242,30.242-68.271,52.685-110.819,64.059l-0.147-0.551  l-30.291-113.035c22.333-5.951,42.278-17.716,58.146-33.585L430.474,430.475z"/>
  <path style="fill:#387762;" d="M255.999,141.153l99.469,172.271H156.531L255.999,141.153z"/>
  <path style="fill:#DB2A78;" d="M319.864,494.339l0.147,0.551c-20.411,5.448-41.873,8.363-64.01,8.363s-43.588-2.914-64.01-8.363  l0.147-0.551l30.291-113.023c10.702,2.865,21.965,4.395,33.572,4.395s22.859-1.53,33.572-4.408L319.864,494.339z"/>
  <path style="fill:#D88A20;" d="M320.011,17.111l-0.147,0.551l-30.291,113.035c-10.713-2.877-21.965-4.408-33.572-4.408  c-11.607,0-22.872,1.53-33.572,4.395L192.137,17.66l-0.147-0.551c20.422-5.448,41.873-8.363,64.01-8.363  S299.6,11.662,320.011,17.111z"/>
  <path style="fill:#EA9B22;" d="M192.136,17.661l30.291,113.023c-22.333,5.963-42.278,17.729-58.146,33.597L81.525,81.525  L81.17,81.17c30.231-30.242,68.271-52.685,110.819-64.059L192.136,17.661z"/>
  <path style="fill:#BF1D64;" d="M222.427,381.315l-30.291,113.023l-0.147,0.551C149.441,483.514,111.4,461.072,81.17,430.83  l0.355-0.355l82.757-82.757C180.149,363.586,200.094,375.353,222.427,381.315z"/>
  <path style="fill:#23CE9E;" d="M130.696,289.573c5.951,22.333,17.716,42.278,33.585,58.146l-82.757,82.757l-0.355,0.355  c-30.242-30.23-52.685-68.26-64.059-110.819l0.551-0.147L130.696,289.573z"/>
  <path style="fill:#0F9966;" d="M81.525,81.525l82.757,82.757c-15.868,15.868-27.634,35.813-33.585,58.146L17.661,192.136  l-0.551-0.147C28.486,149.43,50.928,111.4,81.17,81.17L81.525,81.525z"/>
  <path style="fill:#19B783;" d="M17.662,192.136l113.035,30.291c-2.877,10.713-4.408,21.965-4.408,33.572s1.53,22.859,4.408,33.572  L17.662,319.863l-0.551,0.147c-5.448-20.411-8.363-41.873-8.363-64.01s2.914-43.601,8.363-64.01L17.662,192.136z"/>
  <path d="M503.341,189.731c-11.559-43.249-34.494-82.927-66.326-114.746c-31.833-31.833-71.513-54.768-114.748-66.326  C300.745,2.914,278.45,0,255.999,0c-22.436,0-44.731,2.914-66.27,8.659c-43.251,11.562-82.93,34.497-114.745,66.324  c-31.833,31.821-54.768,71.501-66.326,114.75C2.914,211.254,0,233.549,0,255.999s2.914,44.746,8.659,66.27  c11.558,43.247,34.493,82.927,66.323,114.745c7.74,7.742,16.059,15.062,24.726,21.753c3.821,2.952,9.316,2.246,12.27-1.579  c2.952-3.825,2.246-9.317-1.579-12.27c-5.774-4.458-11.371-9.225-16.737-14.211l70.816-70.816  c13.819,12.177,29.926,21.487,47.304,27.341l-25.938,96.778c-17.237-5.299-33.851-12.552-49.491-21.64  c-4.182-2.427-9.533-1.009-11.959,3.169c-2.427,4.178-1.009,9.532,3.168,11.959c19.507,11.334,40.421,20.028,62.169,25.843  c21.535,5.744,43.829,8.658,66.266,8.658c22.451,0,44.745-2.914,66.268-8.659c43.235-11.558,82.914-34.492,114.746-66.324  c31.832-31.819,54.767-71.499,66.326-114.75c5.746-21.521,8.659-43.817,8.659-66.267S509.086,211.254,503.341,189.731z   M494.504,255.999c0,17.985-2.018,35.855-5.979,53.249l-96.779-25.935c1.799-8.952,2.712-18.105,2.712-27.315  c0-9.212-0.914-18.367-2.712-27.315l96.779-25.936C492.486,220.146,494.504,238.016,494.504,255.999z M363.814,310.849  c-0.191-0.619-0.436-1.226-0.769-1.8l-99.469-172.271c-0.33-0.572-0.73-1.085-1.168-1.558c8.442,0.443,16.795,1.75,24.913,3.93  c20.419,5.441,39.165,16.27,54.213,31.318s25.878,33.794,31.322,54.23c2.726,10.148,4.108,20.679,4.108,31.302  c0,10.624-1.383,21.156-4.108,31.302c-0.001,0.006-0.003,0.012-0.005,0.017C370.677,295.475,367.631,303.357,363.814,310.849z   M193.493,249.41c-4.184-2.417-9.534-0.983-11.95,3.202l-32.587,56.438c-0.331,0.574-0.577,1.18-0.769,1.8  c-3.819-7.496-6.868-15.382-9.042-23.546c-2.726-10.149-4.107-20.68-4.107-31.304c0-10.623,1.382-21.155,4.112-31.32  c5.44-20.419,16.27-39.165,31.319-54.213c15.043-15.043,33.792-25.878,54.222-31.333c8.109-2.171,16.46-3.472,24.904-3.914  c-0.437,0.474-0.839,0.987-1.169,1.558l-50.677,87.769c-2.416,4.184-0.982,9.534,3.202,11.95c4.182,2.416,9.533,0.982,11.95-3.202  l43.102-74.649l84.316,146.029H171.683l25.01-43.316C199.11,257.176,197.676,251.826,193.493,249.41z M211.785,124.766  c-17.38,5.856-33.486,15.165-47.304,27.343L93.664,81.292c26.367-24.514,57.943-42.77,92.185-53.302L211.785,124.766z   M359.891,164.481l33.657-33.659c3.416-3.416,3.416-8.956,0-12.371c-3.418-3.416-8.956-3.416-12.372,0l-33.656,33.657  c-13.825-12.182-29.933-21.49-47.304-27.333l25.936-96.786c34.23,10.529,65.804,28.784,92.183,53.303l-14.996,14.996  c-3.416,3.416-3.416,8.956,0,12.371c1.709,1.708,3.948,2.563,6.187,2.563s4.478-0.854,6.187-2.563l14.997-14.997  c24.516,26.37,42.773,57.944,53.302,92.183l-96.786,25.937C381.377,194.407,372.07,178.303,359.891,164.481z M309.25,23.474  l-25.936,96.785c-17.933-3.587-36.693-3.585-54.626-0.008l-25.937-96.774c17.405-3.962,35.275-5.98,53.248-5.98  C273.984,17.496,291.854,19.514,309.25,23.474z M81.292,93.664l70.817,70.817c-12.183,13.824-21.49,29.932-27.334,47.303  l-42.38-11.357c-4.667-1.25-9.464,1.519-10.714,6.185c-1.25,4.667,1.519,9.464,6.185,10.714l42.388,11.359  c-1.799,8.953-2.712,18.105-2.712,27.313c0,9.211,0.913,18.366,2.712,27.315l-96.778,25.935c-3.962-17.394-5.98-35.265-5.98-53.249  s2.018-35.855,5.979-53.249l30.06,8.056c0.758,0.203,1.521,0.301,2.27,0.301c3.863,0,7.397-2.578,8.444-6.486  c1.25-4.667-1.519-9.464-6.185-10.714l-30.074-8.06C38.517,151.609,56.773,120.036,81.292,93.664z M27.99,326.153l96.786-25.937  c5.847,17.377,15.154,33.481,27.333,47.303L81.29,418.338C56.774,391.967,38.518,360.393,27.99,326.153z M154.598,321.939  c0.629,0.142,1.273,0.232,1.933,0.232h198.938c0.66,0,1.304-0.09,1.933-0.232c-4.577,7.029-9.883,13.608-15.868,19.594  c-15.048,15.048-33.795,25.876-54.23,31.322c-20.305,5.453-42.295,5.451-62.62,0.009c-20.426-5.454-39.173-16.287-54.216-31.33  C164.482,335.547,159.176,328.969,154.598,321.939z M300.215,387.224c17.377-5.847,33.482-15.154,47.304-27.333l70.816,70.816  c-26.379,24.518-57.954,42.774-92.185,53.303L300.215,387.224z M202.75,488.524l25.937-96.771  c8.956,1.795,18.108,2.706,27.313,2.706c9.21,0,18.365-0.914,27.315-2.713l25.935,96.779c-17.396,3.961-35.265,5.978-53.249,5.978  C238.024,494.504,220.154,492.486,202.75,488.524z M430.71,418.338l-70.817-70.817c12.179-13.822,21.485-29.927,27.332-47.303  l96.786,25.937C473.481,360.394,455.225,391.968,430.71,418.338z"/>
  <g>
  </g>
  <g>
  </g>
  <g>
  </g>
  <g>
  </g>
  <g>
  </g>
  <g>
  </g>
  <g>
  </g>
  <g>
  </g>
  <g>
  </g>
  <g>
  </g>
  <g>
  </g>
  <g>
  </g>
  <g>
  </g>
  <g>
  </g>
  <g>
  </g>
</svg>
